<svg width="14" height="16" viewBox="0 0 14 16" fill="none" xmlns="http://www.w3.org/2000/svg">
<path fill-rule="evenodd" clip-rule="evenodd" d="M4.87868 5.12868C5.44129 4.56607 6.20435 4.25 7 4.25C7.79565 4.25 8.55871 4.56607 9.12132 5.12868C9.68393 5.69129 10 6.45435 10 7.25C10 8.04565 9.68393 8.80871 9.12132 9.37132C8.55871 9.93393 7.79565 10.25 7 10.25C6.20435 10.25 5.44129 9.93393 4.87868 9.37132C4.31607 8.80871 4 8.04565 4 7.25C4 6.45435 4.31607 5.69129 4.87868 5.12868ZM7 5.75C6.60217 5.75 6.22064 5.90804 5.93934 6.18934C5.65804 6.47064 5.5 6.85217 5.5 7.25C5.5 7.64783 5.65804 8.02936 5.93934 8.31066C6.22064 8.59196 6.60217 8.75 7 8.75C7.39783 8.75 7.77936 8.59196 8.06066 8.31066C8.34196 8.02936 8.5 7.64783 8.5 7.25C8.5 6.85217 8.34196 6.47064 8.06066 6.18934C7.77936 5.90804 7.39783 5.75 7 5.75Z" fill="#7C7C7F"/>
<path fill-rule="evenodd" clip-rule="evenodd" d="M7 2.00024C5.96166 2.00024 4.94664 2.30814 4.08329 2.88501C3.21994 3.46188 2.54703 4.2818 2.14966 5.24109C1.75229 6.20039 1.64831 7.25598 1.85086 8.27437C2.0534 9.29273 2.55336 10.2282 3.28752 10.9624C3.28755 10.9624 3.2875 10.9624 3.28752 10.9624L6.47032 14.1444C6.61095 14.2849 6.8016 14.3638 7.00038 14.3638C7.19916 14.3638 7.38981 14.2849 7.53044 14.1444L10.7124 10.9625C10.7124 10.9625 10.7124 10.9625 10.7124 10.9625C11.4466 10.2282 11.9466 9.29276 12.1491 8.27437C12.3517 7.25598 12.2477 6.20039 11.8503 5.24109C11.453 4.2818 10.7801 3.46188 9.91672 2.88501C9.05337 2.30814 8.03834 2.00024 7 2.00024ZM3.24994 1.6378C4.35996 0.896116 5.66499 0.500244 7 0.500244C8.33501 0.500244 9.64004 0.896116 10.7501 1.6378C11.8601 2.37948 12.7253 3.43367 13.2362 4.66705C13.7471 5.90043 13.8808 7.25761 13.6203 8.56698C13.3599 9.87634 12.7171 11.0791 11.7731 12.0231L8.59083 15.2054C8.16894 15.6268 7.59672 15.8638 7.00038 15.8638C6.40403 15.8638 5.83208 15.6271 5.41019 15.2056L2.22699 12.0232C1.28302 11.0792 0.640099 9.87634 0.379677 8.56698C0.119255 7.25761 0.252948 5.90043 0.763849 4.66705C1.27475 3.43367 2.13992 2.37948 3.24994 1.6378Z" fill="#7C7C7F"/>
</svg>
