<svg width="23" height="23" viewBox="0 0 23 23" fill="none" xmlns="http://www.w3.org/2000/svg">
<path fill-rule="evenodd" clip-rule="evenodd" d="M11.0209 2.91667C6.54505 2.91667 2.91669 6.54503 2.91669 11.0208C2.91669 15.4966 6.54505 19.125 11.0209 19.125C15.4967 19.125 19.125 15.4966 19.125 11.0208C19.125 6.54503 15.4967 2.91667 11.0209 2.91667ZM0.916687 11.0208C0.916687 5.44046 5.44048 0.916672 11.0209 0.916672C16.6012 0.916672 21.125 5.44046 21.125 11.0208C21.125 16.6012 16.6012 21.125 11.0209 21.125C5.44048 21.125 0.916687 16.6012 0.916687 11.0208Z" fill="white"/>
<path fill-rule="evenodd" clip-rule="evenodd" d="M18.4596 18.4596C18.8501 18.069 19.4833 18.069 19.8738 18.4596L21.7905 20.3762C22.181 20.7668 22.181 21.3999 21.7905 21.7904C21.3999 22.181 20.7668 22.181 20.3762 21.7904L18.4596 19.8738C18.0691 19.4833 18.0691 18.8501 18.4596 18.4596Z" fill="white"/>
</svg>
