<svg width="20" height="20" viewBox="0 0 20 20" fill="none" xmlns="http://www.w3.org/2000/svg">
<path fill-rule="evenodd" clip-rule="evenodd" d="M6.36451 1.22314C7.5171 0.745725 8.75244 0.5 10 0.5C11.2476 0.5 12.4829 0.745725 13.6355 1.22314C14.7881 1.70056 15.8354 2.40033 16.7175 3.28249C17.5997 4.16464 18.2994 5.21191 18.7769 6.36451C19.2543 7.5171 19.5 8.75244 19.5 10C19.5 11.2476 19.2543 12.4829 18.7769 13.6355C18.2994 14.7881 17.5997 15.8354 16.7175 16.7175C15.8354 17.5997 14.7881 18.2994 13.6355 18.7769C12.4829 19.2543 11.2476 19.5 10 19.5C8.75244 19.5 7.5171 19.2543 6.36451 18.7769C5.21191 18.2994 4.16464 17.5997 3.28249 16.7175C2.40033 15.8354 1.70056 14.7881 1.22314 13.6355C0.745725 12.4829 0.5 11.2476 0.5 10C0.5 8.75244 0.745725 7.5171 1.22314 6.36451C1.70056 5.21191 2.40033 4.16464 3.28249 3.28249C4.16464 2.40033 5.21191 1.70056 6.36451 1.22314ZM10 1.5C8.88376 1.5 7.77846 1.71986 6.74719 2.14702C5.71592 2.57419 4.77889 3.20029 3.98959 3.98959C3.20029 4.77889 2.57419 5.71592 2.14702 6.74719C1.71986 7.77846 1.5 8.88376 1.5 10C1.5 11.1162 1.71986 12.2215 2.14702 13.2528C2.57419 14.2841 3.20029 15.2211 3.98959 16.0104C4.77889 16.7997 5.71592 17.4258 6.74719 17.853C7.77846 18.2801 8.88376 18.5 10 18.5C11.1162 18.5 12.2215 18.2801 13.2528 17.853C14.2841 17.4258 15.2211 16.7997 16.0104 16.0104C16.7997 15.2211 17.4258 14.2841 17.853 13.2528C18.2801 12.2215 18.5 11.1162 18.5 10C18.5 8.88376 18.2801 7.77846 17.853 6.74719C17.4258 5.71592 16.7997 4.77889 16.0104 3.98959C15.2211 3.20029 14.2841 2.57419 13.2528 2.14702C12.2215 1.71986 11.1162 1.5 10 1.5Z" fill="#24252A"/>
<path fill-rule="evenodd" clip-rule="evenodd" d="M7.52513 5.52513C8.1815 4.86875 9.07174 4.5 10 4.5C10.9283 4.5 11.8185 4.86875 12.4749 5.52513C13.1313 6.1815 13.5 7.07174 13.5 8C13.5 8.92826 13.1313 9.8185 12.4749 10.4749C11.8185 11.1313 10.9283 11.5 10 11.5C9.07174 11.5 8.1815 11.1313 7.52513 10.4749C6.86875 9.8185 6.5 8.92826 6.5 8C6.5 7.07174 6.86875 6.1815 7.52513 5.52513ZM10 5.5C9.33696 5.5 8.70107 5.76339 8.23223 6.23223C7.76339 6.70107 7.5 7.33696 7.5 8C7.5 8.66304 7.76339 9.29893 8.23223 9.76777C8.70107 10.2366 9.33696 10.5 10 10.5C10.663 10.5 11.2989 10.2366 11.7678 9.76777C12.2366 9.29893 12.5 8.66304 12.5 8C12.5 7.33696 12.2366 6.70107 11.7678 6.23223C11.2989 5.76339 10.663 5.5 10 5.5Z" fill="#24252A"/>
<path fill-rule="evenodd" clip-rule="evenodd" d="M14.0917 15.1928C13.4873 14.7427 12.7538 14.4997 12.0002 14.5L7.99998 14.5C7.24734 14.4998 6.51454 14.7422 5.91055 15.1912C5.30655 15.6403 4.8634 16.2721 4.64683 16.9929C4.56737 17.2573 4.28857 17.4073 4.0241 17.3279C3.75964 17.2484 3.60967 16.9696 3.68913 16.7051C3.96757 15.7784 4.53734 14.9661 5.3139 14.3887C6.09043 13.8114 7.03236 13.4997 7.99998 13.5L11.9998 13.5C11.9999 13.5 11.9997 13.5 11.9998 13.5C12.9687 13.4997 13.9119 13.8121 14.689 14.3908C15.4661 14.9694 16.0357 15.7835 16.3131 16.7119C16.3921 16.9765 16.2417 17.255 15.9771 17.3341C15.7125 17.4131 15.4339 17.2627 15.3549 16.9981C15.1392 16.2761 14.6962 15.6429 14.0917 15.1928Z" fill="#24252A"/>
</svg>
